<svg viewBox="0 0 24 24" fill="none" xmlns="http://www.w3.org/2000/svg">
  <path fill-rule="evenodd" clip-rule="evenodd"
    d="M10.6794 1.45858C11.2147 1.1527 11.7882 0.999756 12.3809 0.999756C12.9735 0.999756 13.5662 1.1527 14.0824 1.45858L21.0985 5.4924C22.15 6.10417 22.8 7.21299 22.8 8.43652V16.5042C22.8 17.7277 22.15 18.8365 21.0985 19.4483L14.1015 23.4821C13.5662 23.788 12.9926 23.9409 12.4 23.9409C11.8074 23.9409 11.2338 23.788 10.6985 23.4821L3.70147 19.4483C2.65 18.8365 2 17.7277 2 16.5042V8.43652C2 7.21299 2.65 6.10417 3.70147 5.4924L10.6794 1.45858ZM13.2252 5.45698C12.7039 5.16163 12.0664 5.15876 11.5425 5.44942L6.51852 8.23631C5.97176 8.53961 5.63257 9.11565 5.63257 9.7409V15.098C5.63257 15.714 5.96189 16.283 6.49602 16.5899L11.525 19.4792C12.036 19.7728 12.6616 19.7844 13.1832 19.51L18.537 16.5899L15.9561 14.6687L12.8708 16.2277C12.5835 16.3728 12.2425 16.3637 11.9635 16.2034L9.17109 14.5991C8.87435 14.4286 8.69139 14.1125 8.69139 13.7702V11.0918C8.69139 10.7444 8.87983 10.4244 9.18359 10.2559L11.9308 8.73194C12.2059 8.57934 12.5385 8.57186 12.8201 8.71195L15.9561 10.2716L18.537 8.48818L13.2252 5.45698Z"
    fill="currentColor" />
</svg>
